<svg width="920" height="920" viewBox="0 0 920 920" fill="none" xmlns="http://www.w3.org/2000/svg">
<g filter="url(#filter0_d_1_13)">
<rect x="30" y="30" width="860" height="860" rx="430" fill="white"/>
</g>
<path d="M733.701 665.34C733.661 663.707 733.641 662.067 733.641 660.42C733.761 545.12 563.011 542.99 563.011 542.99C711.291 526.6 707.701 442.02 705.861 427.21C705.671 425.57 705.501 423.92 705.341 422.21C703.641 403.13 694.611 387.71 681.281 375.27C677.335 371.618 673.131 368.256 668.701 365.21C652.951 354.3 633.701 346.21 614.111 340.28C610.521 339.19 606.921 338.17 603.341 337.22C574.912 329.708 545.626 325.93 516.221 325.98H489.221L500.511 345.9H540.421C557.628 345.856 574.476 350.829 588.901 360.21C599.086 366.785 607.619 375.618 613.84 386.023C620.06 396.428 623.801 408.126 624.771 420.21C625.001 423.42 625.301 426.64 625.681 429.84C638.021 535.2 518.751 538.84 476.681 536.93V464.53L440.051 465.44V787.14C509.291 787.27 570.051 787.31 575.421 786.96C594.341 785.76 613.098 782.705 631.421 777.84C730.871 751.51 733.991 678.75 733.701 665.34ZM612.801 749.71C597.149 760.698 578.475 766.564 559.351 766.5H476.631V551.43C641.141 544.38 651.181 623.58 650.631 646.82C650.498 652.033 650.498 657.247 650.631 662.46C651.931 708 634.461 734.42 612.801 749.71ZM258.431 325.96V272.87L228.281 287.49V589.67C242.481 585.74 243.571 584.67 258.431 590.74V345.88H371.951L383.431 325.96H258.431Z" fill="#DC7038"/>
<path d="M486.991 356.45V367.91H382.591V356.7L390.801 342.48L397.061 331.63L423.581 285.64H446.811L472.901 331.63L479.061 342.48L486.991 356.45Z" fill="#CA8C31"/>
<path d="M443.671 165.35H426.771V337.65H443.671V165.35Z" fill="#CA8C31"/>
<path d="M462.061 371.73C461.134 378.303 457.864 384.319 452.853 388.672C447.843 393.026 441.429 395.423 434.791 395.423C428.153 395.423 421.739 393.026 416.728 388.672C411.718 384.319 408.448 378.303 407.521 371.73H462.061Z" fill="#CA8C31"/>
<path d="M430.291 465.21V679.59C429.561 679.59 428.801 679.59 427.981 679.59C413.341 679.08 398.691 679.38 384.051 679.49C376.571 679.54 369.101 679.3 361.641 679.15C354.821 679.01 348.471 679.35 342.181 676.03C329.851 669.54 328.761 653.37 323.411 641.83C316.041 625.93 305.811 610.55 291.541 600.2C286.861 596.81 282.131 592.93 280.101 587.53C277.461 580.53 279.341 572.86 280.581 565.74C282.821 552.86 284.481 539.91 286.421 526.99C288.243 516.069 290.779 505.279 294.011 494.69C300.271 473.69 322.251 466.8 343.111 465.93C372.151 464.67 401.231 465.9 430.291 465.21Z" fill="#99ABBA"/>
<path d="M313.211 727.55V787.21H266.781V724.78C266.781 715.52 265.561 708.56 258.431 706.28C257.072 705.847 255.664 705.585 254.241 705.5C252.843 705.4 251.439 705.4 250.041 705.5C249.281 705.56 248.491 705.64 247.661 705.73C231.871 707.73 218.291 704.18 208.951 693.49C205.02 688.847 202.028 683.484 200.141 677.7C193.691 659.08 197.441 637.79 208.951 623.87C211.116 621.228 213.587 618.851 216.311 616.79C226.411 609.22 240.141 606.7 253.621 609.1L254.281 609.22C261.132 610.527 267.693 613.054 273.651 616.68C274.181 616.97 274.651 617.28 275.171 617.61C300.621 634.21 310.701 659.47 312.461 688.01C313.251 701.03 313.331 714.1 313.211 727.55Z" fill="#99ABBA"/>
<path d="M335.241 719.26C335.141 741.213 335.068 763.513 335.021 786.16C365.111 786.43 398.351 786.78 430.301 787.06V713.58H335.301C335.261 715.45 335.241 717.32 335.241 719.26Z" fill="#99ABBA"/>
<path d="M306.021 210.83L398.881 157.42L401.411 155.97L437.751 176.88L476.631 199.21L668.701 309.7V331.01C673.911 333.87 680.701 338.7 688.621 346.88V298.21L668.701 286.72L476.631 176.26L437.751 153.9L421.381 144.48L401.381 133L398.851 134.45L381.401 144.45L305.991 187.82L267.151 210.21L228.281 232.56V255.56L267.151 233.21L306.021 210.83Z" fill="#DC7038"/>
<defs>
<filter id="filter0_d_1_13" x="0" y="0" width="920" height="920" filterUnits="userSpaceOnUse" color-interpolation-filters="sRGB">
<feFlood flood-opacity="0" result="BackgroundImageFix"/>
<feColorMatrix in="SourceAlpha" type="matrix" values="0 0 0 0 0 0 0 0 0 0 0 0 0 0 0 0 0 0 127 0" result="hardAlpha"/>
<feMorphology radius="10" operator="dilate" in="SourceAlpha" result="effect1_dropShadow_1_13"/>
<feOffset/>
<feGaussianBlur stdDeviation="10"/>
<feComposite in2="hardAlpha" operator="out"/>
<feColorMatrix type="matrix" values="0 0 0 0 0 0 0 0 0 0 0 0 0 0 0 0 0 0 0.12 0"/>
<feBlend mode="normal" in2="BackgroundImageFix" result="effect1_dropShadow_1_13"/>
<feBlend mode="normal" in="SourceGraphic" in2="effect1_dropShadow_1_13" result="shape"/>
</filter>
</defs>
</svg>
