<svg width="416" height="459" viewBox="0 0 416 459" fill="none" xmlns="http://www.w3.org/2000/svg">
<path d="M416 442.667C416 446.91 414.314 450.98 411.314 453.98C408.313 456.981 404.243 458.667 400 458.667H16C11.7565 458.667 7.68687 456.981 4.68629 453.98C1.68571 450.98 0 446.91 0 442.667C0 438.423 1.68571 434.354 4.68629 431.353C7.68687 428.352 11.7565 426.667 16 426.667H400C404.243 426.667 408.313 428.352 411.314 431.353C414.314 434.354 416 438.423 416 442.667ZM16 32H400C404.243 32 408.313 30.3143 411.314 27.3137C414.314 24.3131 416 20.2435 416 16C416 11.7565 414.314 7.68687 411.314 4.68629C408.313 1.68571 404.243 0 400 0H16C11.7565 0 7.68687 1.68571 4.68629 4.68629C1.68571 7.68687 0 11.7565 0 16C0 20.2435 1.68571 24.3131 4.68629 27.3137C7.68687 30.3143 11.7565 32 16 32ZM257.067 149.333C260.086 152.246 264.128 153.857 268.323 153.819C272.518 153.78 276.531 152.096 279.496 149.128C282.461 146.16 284.142 142.146 284.176 137.951C284.211 133.756 282.596 129.715 279.68 126.699L219.307 66.3467C216.25 63.4602 212.204 61.8522 208 61.8522C203.796 61.8522 199.75 63.4602 196.693 66.3467L136.363 126.699C133.588 129.737 132.091 133.726 132.181 137.839C132.272 141.952 133.943 145.872 136.848 148.786C139.753 151.699 143.668 153.381 147.781 153.483C151.894 153.585 155.888 152.099 158.933 149.333L192 116.267V334.059L158.933 301.013C155.914 298.1 151.872 296.489 147.677 296.528C143.482 296.566 139.469 298.251 136.504 301.219C133.539 304.187 131.858 308.201 131.824 312.396C131.789 316.591 133.404 320.632 136.32 323.648L196.693 384C198.176 385.489 199.938 386.67 201.878 387.476C203.819 388.282 205.899 388.697 208 388.697C210.101 388.697 212.181 388.282 214.122 387.476C216.062 386.67 217.824 385.489 219.307 384L279.637 323.648C282.412 320.61 283.909 316.62 283.819 312.507C283.728 308.394 282.057 304.474 279.152 301.561C276.247 298.648 272.332 296.966 268.219 296.864C264.106 296.762 260.112 298.248 257.067 301.013L224 334.059V116.267L257.067 149.333Z" fill="#dd7139"/>
</svg>
