<svg width="407" height="379" viewBox="0 0 407 379" fill="none" xmlns="http://www.w3.org/2000/svg">
<path d="M336.686 270.08H227.006C224.885 270.08 222.85 269.237 221.35 267.737C219.849 266.237 219.006 264.202 219.006 262.08C219.006 259.958 219.849 257.924 221.35 256.423C222.85 254.923 224.885 254.08 227.006 254.08H336.686C338.808 254.08 340.843 254.923 342.343 256.423C343.844 257.924 344.686 259.958 344.686 262.08C344.686 264.202 343.844 266.237 342.343 267.737C340.843 269.237 338.808 270.08 336.686 270.08ZM375.166 233.52C373.045 233.52 371.01 232.677 369.51 231.177C368.009 229.677 367.166 227.642 367.166 225.52V159.28C367.166 140.72 357.646 124.96 346.446 124.96H219.406C208.126 124.96 198.606 140.96 198.606 159.28V225.52C198.606 227.642 197.764 229.677 196.263 231.177C194.763 232.677 192.728 233.52 190.606 233.52C188.485 233.52 186.45 232.677 184.95 231.177C183.449 229.677 182.606 227.642 182.606 225.52V159.28C182.606 131.12 198.606 108.96 219.406 108.96H346.446C367.086 108.96 383.166 131.12 383.166 159.28V225.52C383.166 227.642 382.324 229.677 380.823 231.177C379.323 232.677 377.288 233.52 375.166 233.52Z" fill="#dd7139"/>
<path d="M367.166 225.52V217.52H336.686C334.565 217.52 332.53 218.363 331.029 219.863C329.529 221.364 328.686 223.399 328.686 225.52V254.08H336.686C338.808 254.08 340.843 254.923 342.343 256.423C343.843 257.924 344.686 259.959 344.686 262.08V233.52H375.166C373.045 233.52 371.01 232.677 369.509 231.177C368.009 229.677 367.166 227.642 367.166 225.52ZM398.046 217.52H336.686C334.565 217.52 332.53 218.363 331.029 219.863C329.529 221.364 328.686 223.399 328.686 225.52V334.64C328.686 336.762 329.529 338.797 331.029 340.297C332.53 341.797 334.565 342.64 336.686 342.64H398.046C400.168 342.64 402.203 341.797 403.703 340.297C405.203 338.797 406.046 336.762 406.046 334.64V225.52C406.046 223.399 405.203 221.364 403.703 219.863C402.203 218.363 400.168 217.52 398.046 217.52ZM344.686 326.64V233.52H390.046V326.64H344.686ZM227.006 217.52H165.406C163.285 217.52 161.25 218.363 159.749 219.863C158.249 221.364 157.406 223.399 157.406 225.52V334.64C157.406 336.762 158.249 338.797 159.749 340.297C161.25 341.797 163.285 342.64 165.406 342.64H227.006C229.128 342.64 231.163 341.797 232.663 340.297C234.163 338.797 235.006 336.762 235.006 334.64V225.52C235.006 223.399 234.163 221.364 232.663 219.863C231.163 218.363 229.128 217.52 227.006 217.52ZM173.406 326.64V233.52H219.006V326.64H173.406Z" fill="#dd7139"/>
<path d="M336.686 342.64H227.006C224.885 342.64 222.85 341.797 221.35 340.297C219.849 338.797 219.006 336.762 219.006 334.64C219.006 332.518 219.849 330.484 221.35 328.983C222.85 327.483 224.885 326.64 227.006 326.64H336.686C338.808 326.64 340.843 327.483 342.343 328.983C343.844 330.484 344.686 332.518 344.686 334.64C344.686 336.762 343.844 338.797 342.343 340.297C340.843 341.797 338.808 342.64 336.686 342.64ZM205.166 326.64H179.966C177.845 326.64 175.81 327.483 174.31 328.983C172.809 330.484 171.966 332.518 171.966 334.64V370.4C171.966 372.522 172.809 374.557 174.31 376.057C175.81 377.557 177.845 378.4 179.966 378.4H205.166C207.288 378.4 209.323 377.557 210.823 376.057C212.324 374.557 213.166 372.522 213.166 370.4V334.64C213.166 332.518 212.324 330.484 210.823 328.983C209.323 327.483 207.288 326.64 205.166 326.64ZM197.166 362.4H187.966V342.64H197.166V362.4ZM387.806 326.64H363.006C360.885 326.64 358.85 327.483 357.35 328.983C355.849 330.484 355.006 332.518 355.006 334.64V370.4C355.006 372.522 355.849 374.557 357.35 376.057C358.85 377.557 360.885 378.4 363.006 378.4H387.806C389.928 378.4 391.963 377.557 393.463 376.057C394.964 374.557 395.806 372.522 395.806 370.4V334.64C395.806 332.518 394.964 330.484 393.463 328.983C391.963 327.483 389.928 326.64 387.806 326.64ZM379.806 362.4H371.006V342.64H379.806V362.4ZM161.646 114.4L130.526 21.5202C128.424 15.2344 124.393 9.77149 119.007 5.90808C113.621 2.04468 107.155 -0.0225863 100.526 0.00018614H61.5665C54.9383 -0.0225863 48.4717 2.04468 43.0859 5.90808C37.7001 9.77149 33.6693 15.2344 31.5665 21.5202L0.44648 114.4C0.0249785 115.608 -0.100556 116.9 0.0804059 118.167C0.261368 119.433 0.743548 120.638 1.48648 121.68C2.23123 122.699 3.20658 123.528 4.33281 124.098C5.45905 124.668 6.70419 124.963 7.96648 124.96H73.0865V334.64C73.0865 335.691 73.2934 336.731 73.6954 337.702C74.0975 338.672 74.6868 339.554 75.4296 340.297C76.1725 341.04 77.0544 341.629 78.025 342.031C78.9956 342.433 80.0359 342.64 81.0865 342.64C82.1371 342.64 83.1773 342.433 84.1479 342.031C85.1185 341.629 86.0005 341.04 86.7433 340.297C87.4862 339.554 88.0755 338.672 88.4775 337.702C88.8796 336.731 89.0865 335.691 89.0865 334.64V124.96H154.126C155.389 124.963 156.634 124.668 157.76 124.098C158.886 123.528 159.862 122.699 160.606 121.68C161.349 120.638 161.832 119.433 162.013 118.167C162.194 116.9 162.068 115.608 161.646 114.4ZM19.0065 108.96L46.6065 26.7202C47.715 23.6534 49.7343 20.9985 52.3937 19.1112C55.053 17.2239 58.2256 16.1942 61.4865 16.1602H100.446C103.707 16.1942 106.88 17.2239 109.539 19.1112C112.199 20.9985 114.218 23.6534 115.326 26.7202L143.006 108.96H19.0065Z" fill="#dd7139"/>
<path d="M135.807 326.64H26.2866C24.1649 326.64 22.1301 327.483 20.6298 328.983C19.1295 330.484 18.2866 332.518 18.2866 334.64V370.88C18.2866 373.002 19.1295 375.037 20.6298 376.537C22.1301 378.037 24.1649 378.88 26.2866 378.88H135.807C137.928 378.88 139.963 378.037 141.463 376.537C142.964 375.037 143.807 373.002 143.807 370.88V334.64C143.807 332.518 142.964 330.484 141.463 328.983C139.963 327.483 137.928 326.64 135.807 326.64ZM127.807 362.88H34.2866V342.64H127.807V362.88Z" fill="#dd7139"/>
</svg>
