<svg width="424" height="506" viewBox="0 0 424 506" fill="none" xmlns="http://www.w3.org/2000/svg">
<path d="M63.1677 185.212C52.9007 174.945 52.9007 158.239 63.1677 147.972C73.4357 137.705 90.1407 137.705 100.408 147.972L156.678 204.243C166.043 213.608 177.034 218.16 190.278 218.16H232.843C246.087 218.16 257.077 213.608 266.443 204.243L322.712 147.973C332.98 137.706 349.686 137.707 359.952 147.973C370.219 158.241 370.219 174.947 359.952 185.214L283.069 262.097C279.119 266.047 277.199 270.682 277.199 276.268V319.602C277.199 321.724 276.356 323.759 274.856 325.259C273.355 326.759 271.32 327.602 269.199 327.602C267.077 327.602 265.042 326.759 263.542 325.259C262.042 323.759 261.199 321.724 261.199 319.602V276.268C261.199 266.362 264.751 257.788 271.755 250.784L348.638 173.901C352.666 169.872 352.666 163.317 348.638 159.288C344.61 155.259 338.054 155.26 334.025 159.288L277.756 215.558C265.411 227.903 250.3 234.162 232.843 234.162H190.278C172.82 234.162 157.71 227.903 145.365 215.558L89.0947 159.288C85.0657 155.26 78.5107 155.26 74.4817 159.288C70.4527 163.317 70.4527 169.872 74.4817 173.901L151.365 250.784C158.369 257.789 161.921 266.363 161.921 276.268V319.602C161.921 321.724 161.078 323.759 159.578 325.259C158.077 326.759 156.042 327.602 153.921 327.602C151.799 327.602 149.764 326.759 148.264 325.259C146.764 323.759 145.921 321.724 145.921 319.602V276.268C145.921 270.683 144.001 266.047 140.051 262.097L63.1687 185.214L63.1677 185.212ZM168.817 170.515C168.817 146.946 187.991 127.772 211.56 127.772C235.129 127.772 254.303 146.946 254.303 170.515C254.303 194.084 235.129 213.258 211.56 213.258C187.991 213.258 168.817 194.084 168.817 170.515ZM184.817 170.515C184.817 185.261 196.814 197.258 211.56 197.258C226.306 197.258 238.303 185.261 238.303 170.515C238.303 155.769 226.306 143.772 211.56 143.772C196.814 143.772 184.817 155.769 184.817 170.515ZM383.809 439.518C363.807 463.008 336.549 480.662 302.793 491.989C275.479 501.154 243.931 505.999 211.56 505.999C179.189 505.999 147.641 501.154 120.327 491.989C86.5707 480.662 59.3127 463.008 39.3107 439.518C4.51871 398.658 -7.26129 341.633 4.29971 270.028C4.50612 268.75 5.0196 267.541 5.79608 266.505C6.57256 265.469 7.58884 264.637 8.75767 264.081C9.92649 263.524 11.2129 263.259 12.5066 263.309C13.8002 263.36 15.0624 263.723 16.1847 264.368C32.0547 273.493 49.2627 281.07 67.4817 289.093C103.909 305.132 141.576 321.717 170.559 352.248C190.134 372.869 203.737 398.051 211.56 428.365C219.383 398.051 232.986 372.869 252.561 352.248C281.544 321.717 319.21 305.132 355.637 289.093C373.856 281.071 391.065 273.493 406.934 264.368C408.056 263.722 409.318 263.358 410.612 263.308C411.906 263.257 413.193 263.522 414.362 264.079C415.531 264.635 416.547 265.468 417.323 266.504C418.1 267.54 418.613 268.75 418.819 270.028C430.38 341.633 418.601 398.658 383.808 439.518H383.809ZM106.038 395.402C107.589 393.954 109.651 393.182 111.772 393.255C113.892 393.328 115.897 394.24 117.345 395.791C138.751 418.724 168.245 447.403 203.028 479.134C196.359 363.34 127.622 333.055 61.0347 303.736C46.8217 297.478 32.2237 291.05 18.4607 283.851C10.5867 345.296 21.6797 394.133 51.4927 429.145C90.0277 474.4 151.636 486.393 190.34 489.213C156.071 457.887 126.945 429.524 105.649 406.709C104.201 405.158 103.428 403.095 103.501 400.975C103.574 398.854 104.487 396.85 106.038 395.402ZM404.66 283.852C390.897 291.05 376.299 297.478 362.086 303.736C295.451 333.077 226.665 363.386 220.081 479.387C253.787 448.654 283.295 419.876 305.777 395.791C307.226 394.245 309.229 393.336 311.347 393.265C313.465 393.194 315.525 393.967 317.074 395.413C318.623 396.859 319.535 398.86 319.61 400.978C319.685 403.096 318.916 405.157 317.473 406.709C295.201 430.569 266.168 458.93 233.068 489.191C271.789 486.333 333.188 474.29 371.628 429.145C401.441 394.133 412.534 345.296 404.66 283.852ZM211.561 68.242C213.682 68.242 215.717 67.3991 217.218 65.8989C218.718 64.3986 219.561 62.3637 219.561 60.242V8C219.561 5.87827 218.718 3.84344 217.218 2.34315C215.717 0.842855 213.682 0 211.561 0C209.439 0 207.404 0.842855 205.904 2.34315C204.404 3.84344 203.561 5.87827 203.561 8V60.242C203.561 62.3637 204.404 64.3986 205.904 65.8989C207.404 67.3991 209.439 68.242 211.561 68.242ZM377.463 135.906C379.426 135.908 381.32 135.186 382.784 133.878L416.785 103.566C418.356 102.151 419.304 100.171 419.42 98.0592C419.536 95.9475 418.811 93.8757 417.404 92.297C415.996 90.7183 414.021 89.7612 411.91 89.6349C409.799 89.5086 407.723 90.2234 406.138 91.623L372.137 121.935C370.926 123.014 370.073 124.436 369.689 126.011C369.304 127.586 369.408 129.241 369.986 130.756C370.564 132.271 371.588 133.575 372.923 134.495C374.259 135.414 375.841 135.907 377.463 135.906ZM298.424 85.28C300.354 86.1602 302.555 86.2376 304.543 85.4949C306.53 84.7523 308.141 83.2505 309.022 81.32L329.935 35.45C330.374 34.4937 330.62 33.4601 330.659 32.4086C330.697 31.3571 330.528 30.3082 330.161 29.322C329.794 28.3359 329.236 27.4318 328.519 26.6617C327.802 25.8915 326.94 25.2704 325.983 24.8338C325.026 24.3973 323.991 24.1539 322.94 24.1176C321.888 24.0813 320.84 24.2529 319.854 24.6224C318.869 24.9919 317.967 25.5522 317.198 26.2711C316.43 26.9901 315.811 27.8535 315.377 28.812L294.464 74.682C293.583 76.6125 293.506 78.8136 294.249 80.8011C294.991 82.7887 296.493 84.3997 298.424 85.28ZM114.098 81.32C114.735 82.7171 115.76 83.9014 117.052 84.7318C118.343 85.5621 119.846 86.0034 121.382 86.003C122.721 86.0023 124.039 85.6654 125.214 85.0233C126.389 84.3811 127.384 83.4542 128.108 82.3275C128.832 81.2008 129.261 79.9104 129.357 78.5746C129.453 77.2388 129.212 75.9004 128.656 74.682L107.743 28.812C106.859 26.8868 105.248 25.3907 103.263 24.6517C101.278 23.9128 99.0803 23.9913 97.153 24.8701C95.2256 25.749 93.7254 27.3563 92.9815 29.3397C92.2376 31.323 92.3107 33.5204 93.1847 35.45L114.098 81.32ZM6.33471 103.567L40.3357 133.879C41.7993 135.187 43.6939 135.909 45.6567 135.907C47.2782 135.908 48.8616 135.415 50.197 134.496C51.5324 133.576 52.5569 132.272 53.1346 130.757C53.7123 129.242 53.8159 127.587 53.4318 126.012C53.0477 124.437 52.1939 123.015 50.9837 121.936L16.9827 91.624C15.3971 90.2244 13.3219 89.5096 11.2107 89.6359C9.09952 89.7622 7.12426 90.7193 5.71688 92.298C4.3095 93.8767 3.58453 95.9485 3.70049 98.0602C3.81646 100.172 4.76293 102.152 6.33471 103.567Z" fill="#dd7139"/>
</svg>
