<svg width="67" height="67" viewBox="0 0 67 67" fill="none" xmlns="http://www.w3.org/2000/svg">
<g clip-path="url(#clip0_4_29)">
<path d="M65.0371 0H57.0547C55.9697 0 55.0918 0.877936 55.0918 1.96289V3.92578H39.0271C38.2141 1.64595 36.0557 0 33.5 0C30.9443 0 28.7859 1.64595 27.9729 3.92578H11.9082V1.96289C11.9082 0.877936 11.0303 0 9.94531 0H1.96289C0.877936 0 0 0.877936 0 1.96289V9.81445C0 10.8994 0.877936 11.7773 1.96289 11.7773H9.94531C11.0303 11.7773 11.9082 10.8994 11.9082 9.81445V7.82539H19.9697C13.1575 12.0811 8.66577 19.5556 8.12885 27.9274C5.77365 28.6982 4.05664 30.8907 4.05664 33.5C4.05664 36.7471 6.69817 39.3887 9.94531 39.3887C13.1925 39.3887 15.834 36.7471 15.834 33.5C15.834 30.9954 14.2557 28.8659 12.0469 28.0161C12.7167 18.6825 19.2293 10.8158 28.2883 8.57129C29.268 10.4657 31.224 11.7773 33.5 11.7773C35.776 11.7773 37.732 10.4657 38.7117 8.57129C47.7707 10.8157 54.2833 18.6824 54.9531 28.0159C52.7443 28.8659 51.166 30.9954 51.166 33.5C51.166 36.7471 53.8075 39.3887 57.0547 39.3887C60.3018 39.3887 62.9434 36.7471 62.9434 33.5C62.9434 30.8907 61.2264 28.6982 58.8711 27.9274C58.3342 19.5556 53.8425 12.1072 47.0303 7.85156H55.0918V9.81445C55.0918 10.8994 55.9697 11.7773 57.0547 11.7773H65.0371C66.1221 11.7773 67 10.8994 67 9.81445V1.96289C67 0.877936 66.1221 0 65.0371 0ZM46.8542 64.5654C45.8275 61.4236 42.8695 59.0176 39.3887 59.0176H27.6113C24.1305 59.0176 21.1725 61.4236 20.1458 64.5654C19.75 65.7767 20.7805 67 22.055 67H44.945C46.2194 67 47.25 65.7767 46.8542 64.5654Z" fill="white"/>
<path d="M50.8363 40.2628L35.4629 17.2026V35.8244C37.7427 36.6375 39.3887 38.7959 39.3887 41.3516C39.3887 44.5987 36.7472 47.2402 33.5 47.2402C30.2529 47.2402 27.6113 44.5987 27.6113 41.3516C27.6113 38.7959 29.2573 36.6375 31.5371 35.8244V17.2026L16.1638 40.2628C15.6443 41.041 15.7478 42.0781 16.4091 42.7395C20.0126 46.3429 22.316 50.9852 23.2049 55.9648C24.5685 55.4116 26.0515 55.0918 27.6113 55.0918H39.3887C40.9485 55.0918 42.4316 55.4115 43.7951 55.9645C44.684 50.9846 46.9874 46.3429 50.5909 42.7395C51.2523 42.0781 51.3558 41.041 50.8363 40.2628Z" fill="white"/>
<path d="M33.5 39.3887C32.417 39.3887 31.5371 40.2686 31.5371 41.3516C31.5371 42.4346 32.417 43.3145 33.5 43.3145C34.583 43.3145 35.4629 42.4346 35.4629 41.3516C35.4629 40.2686 34.583 39.3887 33.5 39.3887Z" fill="white"/>
</g>
<defs>
<clipPath id="clip0_4_29">
<rect width="67" height="67" fill="white"/>
</clipPath>
</defs>
</svg>
