<svg width="67" height="67" viewBox="0 0 67 67" fill="none" xmlns="http://www.w3.org/2000/svg">
<g clip-path="url(#clip0_4_25)">
<path d="M26.9677 9.46777C17.3182 9.46777 9.46753 17.3184 9.46753 26.968C9.46753 36.6176 17.3182 44.4682 26.9677 44.4682C36.6173 44.4682 44.468 36.6177 44.468 26.968C44.468 17.3183 36.6176 9.46777 26.9677 9.46777ZM37.6333 26.968C37.6333 21.087 32.8488 16.3024 26.9677 16.3024V12.3221C35.0435 12.3221 41.6137 18.8923 41.6137 26.968H37.6333Z" fill="white"/>
<path d="M64.9891 55.2802L52.7802 43.0712L49.3329 46.5184L47.3834 44.5689C51.4644 39.8418 53.9358 33.6882 53.9358 26.9678C53.9358 12.0978 41.838 0 26.9679 0C12.0978 0 0 12.0978 0 26.9679C0 41.838 12.0978 53.9357 26.9678 53.9357C33.688 53.9357 39.8417 51.4644 44.5689 47.3833L46.5184 49.3328L43.0712 52.78L55.2802 64.989C56.5769 66.2856 58.301 66.9999 60.1347 66.9999C61.9685 66.9999 63.6925 66.2858 64.9892 64.9891C66.2858 63.6925 67 61.9685 67 60.1347C67 58.301 66.2858 56.5768 64.9891 55.2802ZM26.9678 48.4485C15.1234 48.4485 5.4872 38.8124 5.4872 26.9679C5.4872 15.1234 15.1234 5.48733 26.9678 5.48733C38.8121 5.48733 48.4483 15.1235 48.4483 26.9679C48.4483 38.8122 38.8124 48.4485 26.9678 48.4485Z" fill="white"/>
</g>
<defs>
<clipPath id="clip0_4_25">
<rect width="67" height="67" fill="white"/>
</clipPath>
</defs>
</svg>
