<svg width="67" height="67" viewBox="0 0 67 67" fill="none" xmlns="http://www.w3.org/2000/svg">
<path d="M19.4457 9.01621C20.3748 8.49277 22.2199 7.41973 23.149 6.8832L23.7509 7.91699L20.0476 10.05L19.4457 9.01621ZM33.5654 32.6625L35.0703 33.7355L36.7322 32.7803L36.549 30.9482L33.5654 32.6625ZM20.7804 11.3324C23.2667 15.6508 29.8882 27.1141 32.4662 31.5764L36.1564 29.4434C33.7224 25.2166 26.813 13.243 24.4707 9.18633C23.5677 9.72285 21.7095 10.7959 20.7804 11.3324ZM36.8892 34.3898L36.3919 34.6777L36.9546 35.0834L36.8892 34.3898ZM18.6998 7.74688C19.6158 7.21035 21.474 6.1373 22.4031 5.61387L21.2384 3.59863C21.1599 3.46777 21.0291 3.40234 20.8851 3.40234C20.8197 3.40234 20.7542 3.41543 20.6888 3.45469L17.6791 5.19512C17.4959 5.2998 17.4173 5.56152 17.5351 5.74473L18.6998 7.74688ZM10.4164 45.2904V10.9922C10.4164 8.13945 8.10015 5.82324 5.2605 5.82324C2.39468 5.82324 0.0915527 8.13945 0.0915527 10.9922V45.2904C2.57788 42.032 7.9562 42.0451 10.4164 45.2904ZM65.482 27.0355L66.9083 25.0465L62.2759 21.7227C55.432 31.2623 41.4039 50.8127 34.6123 60.2869L39.2578 63.6107L40.6841 61.6217C40.1738 61.2291 39.1138 60.7842 39.6503 59.9729C40.2392 59.2139 41.0113 60.0645 41.5478 60.4178L43.0789 58.2848C42.5816 57.8922 41.5085 57.4473 42.0451 56.649C42.6339 55.877 43.3929 56.7406 43.9425 57.0939L45.4736 54.9609C44.9632 54.5553 43.9164 54.1234 44.4398 53.3121C45.0156 52.54 45.8007 53.4168 46.3373 53.757L47.8683 51.624C47.371 51.2314 46.298 50.7865 46.8345 49.9752C47.4234 49.2162 48.1955 50.0668 48.732 50.4201L50.263 48.2871C49.7527 47.8814 48.7058 47.4496 49.2292 46.6383C49.8181 45.8662 50.5902 46.743 51.1267 47.0832L52.6578 44.9502C52.1605 44.5576 51.0874 44.0996 51.624 43.3014C52.1998 42.5293 52.9849 43.4061 53.5214 43.7463L55.0525 41.6133C54.5552 41.2207 53.4822 40.7758 54.0187 39.9645C54.2542 39.6373 54.7123 39.5588 55.0525 39.7943L55.9162 40.4094L57.4603 38.2764C56.95 37.8838 55.89 37.4389 56.4265 36.6275C57.0154 35.8555 57.7875 36.7191 58.324 37.0725L59.855 34.9395C59.3578 34.5469 58.2847 34.102 58.8212 33.3037C59.4101 32.5316 60.1691 33.3953 60.7187 33.7486L62.2498 31.6156C61.7394 31.223 60.6925 30.7781 61.216 29.9668C61.7917 29.1947 62.5769 30.0715 63.1003 30.4117L64.6445 28.2787C64.1472 27.8861 63.0742 27.4412 63.6107 26.6299C64.1996 25.8186 64.9455 26.6822 65.482 27.0355ZM47.5281 54.6338H62.9041V33.199L48.3656 53.4561L47.5281 54.6338ZM61.7656 20.0477C62.1712 19.7859 62.5769 20.1 62.9041 20.3486V11.725H27.6505L37.8183 29.3387C37.8576 29.4303 37.8968 29.535 37.9099 29.6396L37.923 29.6527C38.08 31.2492 38.381 34.4814 38.538 36.0648H44.1257C45.1072 36.0779 45.0941 37.5305 44.1257 37.5436H18.3595C17.9539 37.5436 17.6136 37.2164 17.6136 36.7977C17.6136 36.3789 17.9408 36.0518 18.3595 36.0518H35.7769L34.5992 35.2012C34.5861 35.2012 34.5861 35.1881 34.5861 35.1881L31.7726 33.1729C29.1162 28.9592 21.7488 15.7947 19.3017 11.7119H11.8951V49.4648C11.8951 49.8836 11.5679 50.2107 11.1492 50.2107C10.7435 50.2107 10.4033 49.8836 10.4033 49.4648C10.4425 46.2326 7.31499 43.7332 4.20054 44.4137C-1.81899 45.7615 -0.968408 54.5029 5.24741 54.6338H36.8499C43.1181 46.0494 55.3535 28.5535 61.7656 20.0477Z" fill="white"/>
</svg>
