<svg width="67" height="67" viewBox="0 0 67 67" fill="none" xmlns="http://www.w3.org/2000/svg">
<g clip-path="url(#clip0_4_34)">
<path d="M51.8318 30.1888C52.7449 29.2743 52.7449 27.7932 51.8318 26.8788L48.4967 23.5437C47.5822 22.6306 46.1011 22.6306 45.1867 23.5437L43.5299 25.1981L50.1763 31.8445L51.8318 30.1888ZM16.1965 56.7672L15.2395 60.1406L18.6129 59.1836C18.1543 58.0967 17.2894 57.2317 16.2025 56.7731L16.1965 56.7672ZM34.3581 51.0455L45.1854 61.8728C45.6394 62.3263 46.375 62.3263 46.829 61.8728L53.4993 55.2025C53.9528 54.7485 53.9528 54.0129 53.4993 53.5589L51.011 51.0694L48.5216 53.5589C48.0522 54.0122 47.3062 54.0057 46.8447 53.5443C46.3832 53.0828 46.3768 52.3368 46.8301 51.8674L49.3196 49.378L46.8409 46.8981L45.1853 48.5538C44.7158 49.0071 43.9698 49.0006 43.5083 48.5392C43.0468 48.0777 43.0404 47.3317 43.4938 46.8623L45.1494 45.2066L42.672 42.7292L34.3581 51.0455ZM17.6022 51.8458L16.8581 54.4524C17.7875 54.8001 18.6314 55.3431 19.3331 56.0447C20.0347 56.7464 20.5777 57.5903 20.9254 58.5197L23.532 57.7756L21.7544 53.627L17.6022 51.8458ZM39.3521 29.368L41.8293 26.8908L48.4753 33.5367L45.9981 36.0139L39.3521 29.368ZM41.8382 35.2274L24.0798 52.9858L25.5656 56.4538L44.3158 37.7049L41.8382 35.2274ZM22.3883 51.2943L40.1467 33.536L37.6693 31.0585L18.9205 49.8086L22.3883 51.2943Z" fill="white"/>
<path d="M66.4451 21.5805L34.1462 0.204647C33.9558 0.0747522 33.7307 0.00514707 33.5003 0.00488281C33.2762 0.00531153 33.0575 0.0728147 32.8722 0.198694L0.54581 21.5866C0.27241 21.7854 0.0853265 22.0812 0.0228406 22.4134C-0.0396453 22.7456 0.027191 23.0892 0.209673 23.3737C0.292973 23.509 0.402981 23.6259 0.532977 23.7172C0.662972 23.8086 0.810223 23.8724 0.965734 23.9049C1.26351 23.9681 1.57418 23.9058 1.82465 23.7326L32.8399 3.23473C33.0355 3.10697 33.2642 3.03893 33.4978 3.03893C33.7315 3.03893 33.9601 3.10697 34.1558 3.23473L65.1638 23.7242C65.2876 23.8112 65.4278 23.8722 65.5759 23.9035C65.7239 23.9347 65.8768 23.9356 66.0252 23.906C66.1831 23.8728 66.3326 23.808 66.4648 23.7155C66.597 23.623 66.7091 23.5047 66.7944 23.3677C67.1704 22.7737 67.0171 21.9894 66.4451 21.5805Z" fill="white"/>
<path d="M5.98633 23.85V65.799C5.98633 66.4597 6.5219 66.9953 7.1826 66.9953H59.8178C60.4785 66.9953 61.014 66.4597 61.014 65.799V23.8488L33.5002 5.66211L5.98633 23.85ZM43.4937 21.851C43.9326 21.4101 44.4547 21.0606 45.0296 20.8228C45.6046 20.585 46.221 20.4637 46.8432 20.4658C47.4654 20.4637 48.0819 20.5852 48.6569 20.8232C49.2319 21.0612 49.7539 21.411 50.1926 21.8523L53.5277 25.1874C53.968 25.627 54.3173 26.1491 54.5555 26.7239C54.7938 27.2986 54.9165 27.9147 54.9165 28.5369C54.9165 29.159 54.7938 29.7751 54.5555 30.3498C54.3173 30.9246 53.968 31.4467 53.5277 31.8863L44.3633 41.0364L55.1906 51.8637C56.5739 53.2528 56.5739 55.4989 55.1906 56.888L48.5203 63.5583C47.1307 64.9403 44.8856 64.9403 43.496 63.5583L32.6628 52.737L26.0032 59.3953C25.86 59.5397 25.682 59.6447 25.4864 59.7004L15.719 62.4888C15.5139 62.5471 15.3018 62.5769 15.0886 62.5773C14.7332 62.5774 14.3826 62.4949 14.0645 62.3363C13.7464 62.1778 13.4695 61.9476 13.2555 61.6638C13.0415 61.38 12.8964 61.0504 12.8315 60.701C12.7666 60.3515 12.7837 59.9918 12.8815 59.6501L15.676 49.8887C15.7316 49.6931 15.8367 49.5151 15.981 49.3718L22.637 42.7111L11.8097 31.8838C10.4263 30.4947 10.4263 28.2486 11.8097 26.8595L18.48 20.1892C19.8693 18.8065 22.1149 18.8065 23.5043 20.1892L34.3375 31.0105L43.4937 21.851Z" fill="white"/>
<path d="M24.3045 24.3642L21.8152 21.8748C21.3612 21.4213 20.6255 21.4213 20.1716 21.8748L13.5013 28.5451C13.0477 28.9991 13.0477 29.7348 13.5013 30.1887L24.3274 41.016L32.6413 32.7021L30.1638 30.2247L28.5082 31.8803C28.0388 32.3337 27.2927 32.3272 26.8312 31.8658C26.3698 31.4043 26.3634 30.6583 26.8167 30.1889L28.4759 28.5332L25.9985 26.0558L23.509 28.5452C23.0396 28.9985 22.2936 28.992 21.8321 28.5307C21.3706 28.0692 21.3642 27.3231 21.8175 26.8537L24.3045 24.3642Z" fill="white"/>
</g>
<defs>
<clipPath id="clip0_4_34">
<rect width="67" height="67" fill="white"/>
</clipPath>
</defs>
</svg>
