<svg width="67" height="67" viewBox="0 0 67 67" fill="none" xmlns="http://www.w3.org/2000/svg">
<path fill-rule="evenodd" clip-rule="evenodd" d="M57.7286 6.46191H27.3365V24.1476H31.6117L37.5527 13.8515C37.6914 13.6095 37.9532 13.459 38.2319 13.459C38.5145 13.459 38.771 13.6095 38.9163 13.8515L42.3736 19.8397L48.1707 9.79752C48.3094 9.55412 48.5711 9.40494 48.8498 9.40494C49.1272 9.40494 49.389 9.55412 49.529 9.79752L57.7312 23.9971V6.46191H57.7286ZM28.2827 59.8499V56.0223H23.5704V59.8499H28.2827ZM56.7786 56.0236V59.8512H61.4908V56.0236H56.7786ZM63.4511 49.8038H21.6088V54.452H63.4511V49.8038ZM59.1026 41.7076V48.2335H63.4524V41.7076C63.4524 40.5076 62.4749 39.5314 61.2775 39.5314C60.0749 39.5314 59.1026 40.5076 59.1026 41.7076ZM57.531 46.0207C47.0584 44.152 36.7139 44.1468 27.5289 46.0037V48.2335H57.531V46.0207ZM25.9586 41.7076C25.9586 40.5076 24.9863 39.5314 23.7837 39.5314C22.5863 39.5314 21.6088 40.5076 21.6088 41.7076V48.2335H25.9586V45.3651V41.7076ZM26.9047 30.7167H57.7941C58.8684 30.7167 59.7386 31.5908 59.7386 32.6652V38.2921C58.4405 38.8797 57.5323 40.1896 57.5323 41.7076V44.4242C47.0754 42.5922 36.7479 42.5843 27.5302 44.402V41.7076C27.5302 40.0522 26.4506 38.6442 24.9601 38.1508V32.6652C24.9588 31.5908 25.8303 30.7167 26.9047 30.7167ZM17.6608 22.1349L14.6419 10.9844C14.5516 10.6416 14.2414 10.4034 13.8829 10.4034H5.75652C5.39796 10.4034 5.08913 10.6416 4.99753 10.9844L1.97861 22.1349C1.91449 22.3705 1.9629 22.623 2.11208 22.8167C2.25603 23.0104 2.49158 23.1242 2.73236 23.1242H9.03716V55.1966H3.2872C2.85406 55.1966 2.50728 55.5486 2.50728 55.9817V60.6351C2.50728 61.0695 2.85406 61.4202 3.2872 61.4202C3.72558 61.4202 4.07236 61.0695 4.07236 60.6351V56.7669H15.5605V60.6351C15.5605 61.0695 15.9125 61.4202 16.3457 61.4202C16.784 61.4202 17.1308 61.0695 17.1308 60.6351V55.9817C17.1308 55.5486 16.784 55.1966 16.3457 55.1966H10.6075V23.1255H16.9018C17.1478 23.1255 17.3768 23.0117 17.5273 22.818C17.6006 22.7221 17.6508 22.6106 17.674 22.4921C17.6971 22.3736 17.6926 22.2514 17.6608 22.1349ZM32.6965 11.2448C32.109 11.2448 31.6327 10.7672 31.6327 10.1809C31.6327 9.59338 32.1077 9.11574 32.6965 9.11574C33.2841 9.11574 33.7604 9.59338 33.7604 10.1809C33.7591 10.7672 33.2841 11.2448 32.6965 11.2448ZM41.4641 21.41L39.882 24.1476H33.4215L38.2306 15.8144L41.4641 21.41ZM48.8485 11.7617L56.0026 24.1489H41.6997L48.8485 11.7617ZM32.6965 7.54543C34.1504 7.54543 35.3307 8.72709 35.3307 10.1809C35.3307 11.6335 34.1504 12.8151 32.6965 12.8151C31.2427 12.8151 30.0623 11.6335 30.0623 10.1809C30.0623 8.7284 31.2427 7.54543 32.6965 7.54543Z" fill="white"/>
</svg>
